<svg xmlns="http://www.w3.org/2000/svg" xmlns:xlink="http://www.w3.org/1999/xlink" width="500" zoomAndPan="magnify" viewBox="0 0 375 374.999991" height="500" preserveAspectRatio="xMidYMid meet" version="1.0"><defs><g/><clipPath id="f2868280f8"><path d="M 112.5 110.4375 L 262.5 110.4375 L 262.5 187.6875 L 112.5 187.6875 Z M 112.5 110.4375 " clip-rule="nonzero"/></clipPath></defs><g clip-path="url(#f2868280f8)"><path fill="#8da2b0" d="M 208.386719 110.433594 L 187.5 127.992188 L 166.613281 110.433594 L 112.511719 155.910156 L 112.511719 187.496094 L 121.410156 187.496094 L 121.410156 160.058594 L 143.40625 141.566406 L 143.410156 141.566406 L 166.613281 122.058594 L 180.585938 133.804688 L 154.289062 155.910156 L 154.289062 187.464844 L 220.710938 187.464844 L 220.710938 155.910156 L 194.414062 133.804688 L 208.386719 122.058594 L 230.351562 140.523438 L 253.589844 160.058594 L 253.589844 187.496094 L 262.488281 187.496094 L 262.488281 155.914062 Z M 188.574219 140.523438 L 211.8125 160.054688 L 211.8125 178.566406 L 163.1875 178.566406 L 163.1875 160.054688 L 185.183594 141.566406 L 187.5 139.617188 L 188.574219 140.519531 Z M 188.574219 140.523438 " fill-opacity="1" fill-rule="nonzero"/></g><g fill="#ffffff" fill-opacity="1"><g transform="translate(158.745697, 213.860787)"><g><path d="M 1.265625 0 C 1.191406 0 1.15625 -0.046875 1.15625 -0.140625 L 1.1875 -20 C 1.1875 -20.070312 1.222656 -20.109375 1.296875 -20.109375 L 10.578125 -20.109375 C 10.648438 -20.109375 10.6875 -20.0625 10.6875 -19.96875 L 10.6875 -16.734375 C 10.6875 -16.648438 10.648438 -16.609375 10.578125 -16.609375 L 4.65625 -16.609375 L 4.65625 -12.109375 L 10.578125 -12.109375 C 10.648438 -12.109375 10.6875 -12.066406 10.6875 -11.984375 L 10.71875 -8.71875 C 10.71875 -8.644531 10.679688 -8.609375 10.609375 -8.609375 L 4.65625 -8.609375 L 4.65625 -3.546875 L 10.609375 -3.546875 C 10.679688 -3.546875 10.71875 -3.5 10.71875 -3.40625 L 10.71875 -0.109375 C 10.71875 -0.0351562 10.679688 0 10.609375 0 Z M 1.265625 0 "/></g></g></g><g fill="#ffffff" fill-opacity="1"><g transform="translate(181.134745, 213.860787)"><g><path d="M 4.390625 0 C 4.316406 0 4.269531 -0.046875 4.25 -0.140625 L 0.265625 -20 C 0.242188 -20.070312 0.28125 -20.109375 0.375 -20.109375 L 3.640625 -20.109375 C 3.710938 -20.109375 3.757812 -20.070312 3.78125 -20 L 6.15625 -6.765625 L 8.46875 -20 C 8.488281 -20.070312 8.535156 -20.109375 8.609375 -20.109375 L 11.84375 -20.109375 C 11.9375 -20.109375 11.972656 -20.070312 11.953125 -20 L 8.03125 -0.140625 C 8.007812 -0.046875 7.960938 0 7.890625 0 Z M 4.390625 0 "/></g></g></g><g fill="#ffffff" fill-opacity="1"><g transform="translate(203.89932, 213.860787)"><g><path d="M 0.171875 -0.140625 L 3.75 -20 C 3.769531 -20.070312 3.820312 -20.109375 3.90625 -20.109375 L 8.09375 -20.109375 C 8.164062 -20.109375 8.210938 -20.070312 8.234375 -20 L 11.671875 -0.140625 C 11.691406 -0.046875 11.65625 0 11.5625 0 L 8.34375 0 C 8.269531 0 8.222656 -0.046875 8.203125 -0.140625 L 7.890625 -2.25 L 3.953125 -2.25 L 3.640625 -0.140625 C 3.617188 -0.046875 3.570312 0 3.5 0 L 0.28125 0 C 0.207031 0 0.171875 -0.046875 0.171875 -0.140625 Z M 4.53125 -5.34375 L 7.3125 -5.34375 L 6.125 -13.46875 L 5.953125 -14.53125 L 5.828125 -13.46875 Z M 4.53125 -5.34375 "/></g></g></g><g fill="#ffffff" fill-opacity="1"><g transform="translate(125.982763, 232.261684)"><g><path d="M 7.421875 -5.8125 C 7.421875 -5.03125 7.164062 -4.40625 6.65625 -3.9375 C 6.144531 -3.46875 5.445312 -3.234375 4.5625 -3.234375 L 2.125 -3.234375 L 2.125 0 L 0.984375 0 L 0.984375 -8.328125 L 4.5 -8.328125 C 5.425781 -8.328125 6.144531 -8.109375 6.65625 -7.671875 C 7.164062 -7.234375 7.421875 -6.613281 7.421875 -5.8125 Z M 6.296875 -5.8125 C 6.296875 -6.882812 5.648438 -7.421875 4.359375 -7.421875 L 2.125 -7.421875 L 2.125 -4.140625 L 4.40625 -4.140625 C 5.664062 -4.140625 6.296875 -4.695312 6.296875 -5.8125 Z M 6.296875 -5.8125 "/></g></g></g><g fill="#ffffff" fill-opacity="1"><g transform="translate(134.932453, 232.261684)"><g><path d="M 6.875 0 L 4.71875 -3.453125 L 2.125 -3.453125 L 2.125 0 L 0.984375 0 L 0.984375 -8.328125 L 4.90625 -8.328125 C 5.84375 -8.328125 6.566406 -8.113281 7.078125 -7.6875 C 7.585938 -7.269531 7.84375 -6.6875 7.84375 -5.9375 C 7.84375 -5.320312 7.660156 -4.800781 7.296875 -4.375 C 6.941406 -3.957031 6.445312 -3.691406 5.8125 -3.578125 L 8.171875 0 Z M 6.703125 -5.921875 C 6.703125 -6.410156 6.535156 -6.78125 6.203125 -7.03125 C 5.878906 -7.289062 5.410156 -7.421875 4.796875 -7.421875 L 2.125 -7.421875 L 2.125 -4.34375 L 4.84375 -4.34375 C 5.4375 -4.34375 5.894531 -4.476562 6.21875 -4.75 C 6.539062 -5.03125 6.703125 -5.421875 6.703125 -5.921875 Z M 6.703125 -5.921875 "/></g></g></g><g fill="#ffffff" fill-opacity="1"><g transform="translate(144.549426, 232.261684)"><g><path d="M 8.828125 -4.203125 C 8.828125 -3.328125 8.660156 -2.5625 8.328125 -1.90625 C 7.992188 -1.257812 7.515625 -0.757812 6.890625 -0.40625 C 6.273438 -0.0507812 5.539062 0.125 4.6875 0.125 C 3.832031 0.125 3.09375 -0.046875 2.46875 -0.390625 C 1.851562 -0.742188 1.382812 -1.25 1.0625 -1.90625 C 0.738281 -2.5625 0.578125 -3.328125 0.578125 -4.203125 C 0.578125 -5.523438 0.9375 -6.5625 1.65625 -7.3125 C 2.382812 -8.0625 3.398438 -8.4375 4.703125 -8.4375 C 5.546875 -8.4375 6.28125 -8.269531 6.90625 -7.9375 C 7.53125 -7.601562 8.003906 -7.113281 8.328125 -6.46875 C 8.660156 -5.832031 8.828125 -5.078125 8.828125 -4.203125 Z M 7.671875 -4.203125 C 7.671875 -5.234375 7.410156 -6.039062 6.890625 -6.625 C 6.378906 -7.21875 5.648438 -7.515625 4.703125 -7.515625 C 3.753906 -7.515625 3.019531 -7.222656 2.5 -6.640625 C 1.976562 -6.066406 1.71875 -5.253906 1.71875 -4.203125 C 1.71875 -3.160156 1.976562 -2.332031 2.5 -1.71875 C 3.03125 -1.101562 3.757812 -0.796875 4.6875 -0.796875 C 5.65625 -0.796875 6.394531 -1.09375 6.90625 -1.6875 C 7.414062 -2.28125 7.671875 -3.117188 7.671875 -4.203125 Z M 7.671875 -4.203125 "/></g></g></g><g fill="#ffffff" fill-opacity="1"><g transform="translate(154.839585, 232.261684)"><g><path d="M 7.421875 -5.8125 C 7.421875 -5.03125 7.164062 -4.40625 6.65625 -3.9375 C 6.144531 -3.46875 5.445312 -3.234375 4.5625 -3.234375 L 2.125 -3.234375 L 2.125 0 L 0.984375 0 L 0.984375 -8.328125 L 4.5 -8.328125 C 5.425781 -8.328125 6.144531 -8.109375 6.65625 -7.671875 C 7.164062 -7.234375 7.421875 -6.613281 7.421875 -5.8125 Z M 6.296875 -5.8125 C 6.296875 -6.882812 5.648438 -7.421875 4.359375 -7.421875 L 2.125 -7.421875 L 2.125 -4.140625 L 4.40625 -4.140625 C 5.664062 -4.140625 6.296875 -4.695312 6.296875 -5.8125 Z M 6.296875 -5.8125 "/></g></g></g><g fill="#ffffff" fill-opacity="1"><g transform="translate(163.789276, 232.261684)"><g><path d="M 0.984375 0 L 0.984375 -8.328125 L 7.296875 -8.328125 L 7.296875 -7.40625 L 2.125 -7.40625 L 2.125 -4.734375 L 6.953125 -4.734375 L 6.953125 -3.828125 L 2.125 -3.828125 L 2.125 -0.921875 L 7.546875 -0.921875 L 7.546875 0 Z M 0.984375 0 "/></g></g></g><g fill="#ffffff" fill-opacity="1"><g transform="translate(172.738967, 232.261684)"><g><path d="M 6.875 0 L 4.71875 -3.453125 L 2.125 -3.453125 L 2.125 0 L 0.984375 0 L 0.984375 -8.328125 L 4.90625 -8.328125 C 5.84375 -8.328125 6.566406 -8.113281 7.078125 -7.6875 C 7.585938 -7.269531 7.84375 -6.6875 7.84375 -5.9375 C 7.84375 -5.320312 7.660156 -4.800781 7.296875 -4.375 C 6.941406 -3.957031 6.445312 -3.691406 5.8125 -3.578125 L 8.171875 0 Z M 6.703125 -5.921875 C 6.703125 -6.410156 6.535156 -6.78125 6.203125 -7.03125 C 5.878906 -7.289062 5.410156 -7.421875 4.796875 -7.421875 L 2.125 -7.421875 L 2.125 -4.34375 L 4.84375 -4.34375 C 5.4375 -4.34375 5.894531 -4.476562 6.21875 -4.75 C 6.539062 -5.03125 6.703125 -5.421875 6.703125 -5.921875 Z M 6.703125 -5.921875 "/></g></g></g><g fill="#ffffff" fill-opacity="1"><g transform="translate(182.355937, 232.261684)"><g><path d="M 4.25 -7.40625 L 4.25 0 L 3.125 0 L 3.125 -7.40625 L 0.265625 -7.40625 L 0.265625 -8.328125 L 7.109375 -8.328125 L 7.109375 -7.40625 Z M 4.25 -7.40625 "/></g></g></g><g fill="#ffffff" fill-opacity="1"><g transform="translate(190.626536, 232.261684)"><g><path d="M 4.59375 -3.453125 L 4.59375 0 L 3.46875 0 L 3.46875 -3.453125 L 0.265625 -8.328125 L 1.5 -8.328125 L 4.046875 -4.359375 L 6.5625 -8.328125 L 7.796875 -8.328125 Z M 4.59375 -3.453125 "/></g></g></g><g fill="#ffffff" fill-opacity="1"><g transform="translate(199.576227, 232.261684)"><g/></g></g><g fill="#ffffff" fill-opacity="1"><g transform="translate(203.819513, 232.261684)"><g><path d="M 6.890625 0 L 5.9375 -2.4375 L 2.15625 -2.4375 L 1.1875 0 L 0.03125 0 L 3.421875 -8.328125 L 4.703125 -8.328125 L 8.046875 0 Z M 4.046875 -7.46875 L 3.984375 -7.296875 C 3.890625 -6.972656 3.75 -6.554688 3.5625 -6.046875 L 2.484375 -3.3125 L 5.609375 -3.3125 L 4.53125 -6.0625 C 4.425781 -6.332031 4.316406 -6.640625 4.203125 -6.984375 Z M 4.046875 -7.46875 "/></g></g></g><g fill="#ffffff" fill-opacity="1"><g transform="translate(212.769204, 232.261684)"><g><path d="M 0.609375 -4.203125 C 0.609375 -5.546875 0.96875 -6.585938 1.6875 -7.328125 C 2.414062 -8.066406 3.4375 -8.4375 4.75 -8.4375 C 5.664062 -8.4375 6.410156 -8.28125 6.984375 -7.96875 C 7.566406 -7.664062 8.015625 -7.171875 8.328125 -6.484375 L 7.25 -6.171875 C 7.007812 -6.640625 6.679688 -6.976562 6.265625 -7.1875 C 5.847656 -7.40625 5.332031 -7.515625 4.71875 -7.515625 C 3.757812 -7.515625 3.023438 -7.222656 2.515625 -6.640625 C 2.003906 -6.066406 1.75 -5.253906 1.75 -4.203125 C 1.75 -3.148438 2.019531 -2.316406 2.5625 -1.703125 C 3.101562 -1.097656 3.847656 -0.796875 4.796875 -0.796875 C 5.335938 -0.796875 5.84375 -0.878906 6.3125 -1.046875 C 6.789062 -1.210938 7.175781 -1.4375 7.46875 -1.71875 L 7.46875 -3.21875 L 4.984375 -3.21875 L 4.984375 -4.15625 L 8.5 -4.15625 L 8.5 -1.296875 C 8.0625 -0.847656 7.519531 -0.5 6.875 -0.25 C 6.238281 0 5.546875 0.125 4.796875 0.125 C 3.929688 0.125 3.179688 -0.046875 2.546875 -0.390625 C 1.921875 -0.742188 1.441406 -1.242188 1.109375 -1.890625 C 0.773438 -2.546875 0.609375 -3.316406 0.609375 -4.203125 Z M 0.609375 -4.203125 "/></g></g></g><g fill="#ffffff" fill-opacity="1"><g transform="translate(223.059359, 232.261684)"><g><path d="M 0.984375 0 L 0.984375 -8.328125 L 7.296875 -8.328125 L 7.296875 -7.40625 L 2.125 -7.40625 L 2.125 -4.734375 L 6.953125 -4.734375 L 6.953125 -3.828125 L 2.125 -3.828125 L 2.125 -0.921875 L 7.546875 -0.921875 L 7.546875 0 Z M 0.984375 0 "/></g></g></g><g fill="#ffffff" fill-opacity="1"><g transform="translate(232.00905, 232.261684)"><g><path d="M 6.390625 0 L 1.9375 -7.09375 L 1.96875 -6.515625 L 2 -5.53125 L 2 0 L 0.984375 0 L 0.984375 -8.328125 L 2.296875 -8.328125 L 6.796875 -1.1875 C 6.753906 -1.957031 6.734375 -2.515625 6.734375 -2.859375 L 6.734375 -8.328125 L 7.75 -8.328125 L 7.75 0 Z M 6.390625 0 "/></g></g></g><g fill="#ffffff" fill-opacity="1"><g transform="translate(241.626024, 232.261684)"><g><path d="M 4.25 -7.40625 L 4.25 0 L 3.125 0 L 3.125 -7.40625 L 0.265625 -7.40625 L 0.265625 -8.328125 L 7.109375 -8.328125 L 7.109375 -7.40625 Z M 4.25 -7.40625 "/></g></g></g><path stroke-linecap="butt" transform="matrix(0.75, 0, 0, 0.75, 89.398806, 227.011684)" fill="none" stroke-linejoin="miter" d="M -0.000491106 1.000046 L 36.051595 1.000046 " stroke="#8da2b0" stroke-width="2" stroke-opacity="1" stroke-miterlimit="4"/><path stroke-linecap="butt" transform="matrix(0.75, 0, 0, 0.75, 258.564304, 227.011684)" fill="none" stroke-linejoin="miter" d="M -0.00240576 1.000046 L 36.04968 1.000046 " stroke="#8da2b0" stroke-width="2" stroke-opacity="1" stroke-miterlimit="4"/></svg>